<svg width="0" height="0" class="hidden">
  <symbol fill="none" xmlns="http://www.w3.org/2000/svg" viewBox="0 0 24 24" id="play">
    <path d="M3 12L3 18.9671C3 21.2763 5.53435 22.736 7.59662 21.6145L10.7996 19.8727M3 8L3 5.0329C3 2.72368 5.53435 1.26402 7.59661 2.38548L20.4086 9.35258C22.5305 10.5065 22.5305 13.4935 20.4086 14.6474L14.0026 18.131" stroke="#1C274C" stroke-width="1.5" stroke-linecap="round"></path>
  </symbol>
  <symbol fill="#1C274C" xmlns="http://www.w3.org/2000/svg" viewBox="0 0 32 32" id="paste">
    <g id="SVGRepo_bgCarrier" stroke-width="0"></g>
    <g id="SVGRepo_tracerCarrier" stroke-linecap="round" stroke-linejoin="round"></g>
    <g id="SVGRepo_iconCarrier">
      <path d="M20.93,12.67a.32.32,0,0,0,0-.09,1.07,1.07,0,0,0-.19-.28h0l-8-8h0a1.07,1.07,0,0,0-.28-.19l-.1,0A1.1,1.1,0,0,0,12.06,4H2A2,2,0,0,0,0,6V30a2,2,0,0,0,2,2H19a2,2,0,0,0,2-2V13s0,0,0-.06A1.31,1.31,0,0,0,20.93,12.67ZM13,7.41,17.59,12H13ZM2,30V6h9v7a1,1,0,0,0,1,1h7V30Z"></path>
      <path d="M31,4.38H25V3a3,3,0,0,0-3-3H12a1,1,0,0,0,0,2H22a1,1,0,0,1,1,1V4.38H18.38a1,1,0,0,0,0,2H30V9H29a1,1,0,0,0,0,2h1v3.25H29a1,1,0,0,0,0,2h1V20H29a1,1,0,0,0,0,2h1v4H24a1,1,0,0,0,0,2h7a1,1,0,0,0,1-1V5.38A1,1,0,0,0,31,4.38Z"></path>
    </g>
  </symbol>
  <symbol fill="none" xmlns="http://www.w3.org/2000/svg" stroke="#1C274C" viewBox="0 0 24 24" id="delete">
    <g id="SVGRepo_bgCarrier" stroke-width="0"></g>
    <g id="SVGRepo_tracerCarrier" stroke-linecap="round" stroke-linejoin="round"></g>
    <g id="SVGRepo_iconCarrier">
      <path d="M12.0004 9.5L17.0004 14.5M17.0004 9.5L12.0004 14.5M4.50823 13.9546L7.43966 17.7546C7.79218 18.2115 7.96843 18.44 8.18975 18.6047C8.38579 18.7505 8.6069 18.8592 8.84212 18.9253C9.10766 19 9.39623 19 9.97336 19H17.8004C18.9205 19 19.4806 19 19.9084 18.782C20.2847 18.5903 20.5907 18.2843 20.7824 17.908C21.0004 17.4802 21.0004 16.9201 21.0004 15.8V8.2C21.0004 7.0799 21.0004 6.51984 20.7824 6.09202C20.5907 5.71569 20.2847 5.40973 19.9084 5.21799C19.4806 5 18.9205 5 17.8004 5H9.97336C9.39623 5 9.10766 5 8.84212 5.07467C8.6069 5.14081 8.38579 5.2495 8.18975 5.39534C7.96843 5.55998 7.79218 5.78846 7.43966 6.24543L4.50823 10.0454C3.96863 10.7449 3.69883 11.0947 3.59505 11.4804C3.50347 11.8207 3.50347 12.1793 3.59505 12.5196C3.69883 12.9053 3.96863 13.2551 4.50823 13.9546Z" stroke="#1C274C" stroke-width="2" stroke-linecap="round" stroke-linejoin="round"></path>
    </g>
  </symbol>
  <symbol fill="none" xmlns="http://www.w3.org/2000/svg" viewBox="0 0 24 24" id="clear">
    <path d="M5.50506 11.4096L6.03539 11.9399L5.50506 11.4096ZM3 14.9522H2.25H3ZM12.5904 18.4949L12.0601 17.9646L12.5904 18.4949ZM9.04776 21V21.75V21ZM11.4096 5.50506L10.8792 4.97473L11.4096 5.50506ZM13.241 17.8444C13.5339 18.1373 14.0088 18.1373 14.3017 17.8444C14.5946 17.5515 14.5946 17.0766 14.3017 16.7837L13.241 17.8444ZM7.21629 9.69832C6.9234 9.40543 6.44852 9.40543 6.15563 9.69832C5.86274 9.99122 5.86274 10.4661 6.15563 10.759L7.21629 9.69832ZM16.073 16.073C16.3659 15.7801 16.3659 15.3053 16.073 15.0124C15.7801 14.7195 15.3053 14.7195 15.0124 15.0124L16.073 16.073ZM18.4676 11.5559C18.1759 11.8499 18.1777 12.3248 18.4718 12.6165C18.7658 12.9083 19.2407 12.9064 19.5324 12.6124L18.4676 11.5559ZM6.03539 11.9399L11.9399 6.03539L10.8792 4.97473L4.97473 10.8792L6.03539 11.9399ZM6.03539 17.9646C5.18538 17.1146 4.60235 16.5293 4.22253 16.0315C3.85592 15.551 3.75 15.2411 3.75 14.9522H2.25C2.25 15.701 2.56159 16.3274 3.03 16.9414C3.48521 17.538 4.1547 18.2052 4.97473 19.0253L6.03539 17.9646ZM4.97473 10.8792C4.1547 11.6993 3.48521 12.3665 3.03 12.9631C2.56159 13.577 2.25 14.2035 2.25 14.9522H3.75C3.75 14.6633 3.85592 14.3535 4.22253 13.873C4.60235 13.3752 5.18538 12.7899 6.03539 11.9399L4.97473 10.8792ZM12.0601 17.9646C11.2101 18.8146 10.6248 19.3977 10.127 19.7775C9.64651 20.1441 9.33665 20.25 9.04776 20.25V21.75C9.79649 21.75 10.423 21.4384 11.0369 20.97C11.6335 20.5148 12.3008 19.8453 13.1208 19.0253L12.0601 17.9646ZM4.97473 19.0253C5.79476 19.8453 6.46201 20.5148 7.05863 20.97C7.67256 21.4384 8.29902 21.75 9.04776 21.75V20.25C8.75886 20.25 8.449 20.1441 7.9685 19.7775C7.47069 19.3977 6.88541 18.8146 6.03539 17.9646L4.97473 19.0253ZM17.9646 6.03539C18.8146 6.88541 19.3977 7.47069 19.7775 7.9685C20.1441 8.449 20.25 8.75886 20.25 9.04776H21.75C21.75 8.29902 21.4384 7.67256 20.97 7.05863C20.5148 6.46201 19.8453 5.79476 19.0253 4.97473L17.9646 6.03539ZM19.0253 4.97473C18.2052 4.1547 17.538 3.48521 16.9414 3.03C16.3274 2.56159 15.701 2.25 14.9522 2.25V3.75C15.2411 3.75 15.551 3.85592 16.0315 4.22253C16.5293 4.60235 17.1146 5.18538 17.9646 6.03539L19.0253 4.97473ZM11.9399 6.03539C12.7899 5.18538 13.3752 4.60235 13.873 4.22253C14.3535 3.85592 14.6633 3.75 14.9522 3.75V2.25C14.2035 2.25 13.577 2.56159 12.9631 3.03C12.3665 3.48521 11.6993 4.1547 10.8792 4.97473L11.9399 6.03539ZM14.3017 16.7837L7.21629 9.69832L6.15563 10.759L13.241 17.8444L14.3017 16.7837ZM15.0124 15.0124L12.0601 17.9646L13.1208 19.0253L16.073 16.073L15.0124 15.0124ZM19.5324 12.6124C20.1932 11.9464 20.7384 11.3759 21.114 10.8404C21.5023 10.2869 21.75 9.71511 21.75 9.04776H20.25C20.25 9.30755 20.1644 9.58207 19.886 9.979C19.5949 10.394 19.1401 10.8781 18.4676 11.5559L19.5324 12.6124Z" fill="#1C274C"></path>
    <path d="M9 21H21" stroke="#1C274C" stroke-width="1.5" stroke-linecap="round"></path>
  </symbol>
  <symbol version="1.1" xmlns="http://www.w3.org/2000/svg" xmlns:xlink="http://www.w3.org/1999/xlink" viewBox="0 0 24 24" id="back">
    <title>backe</title>
    <g id="页面-1" stroke="none" stroke-width="1" fill="none" fill-rule="evenodd">
      <g id="Arrow" transform="translate(-480.000000, 0.000000)" fill-rule="nonzero">
        <g id="back_2_line" transform="translate(480.000000, 0.000000)">
          <path d="M24,0 L24,24 L0,24 L0,0 L24,0 Z M12.5934901,23.257841 L12.5819402,23.2595131 L12.5108777,23.2950439 L12.4918791,23.2987469 L12.4918791,23.2987469 L12.4767152,23.2950439 L12.4056548,23.2595131 C12.3958229,23.2563662 12.3870493,23.2590235 12.3821421,23.2649074 L12.3780323,23.275831 L12.360941,23.7031097 L12.3658947,23.7234994 L12.3769048,23.7357139 L12.4804777,23.8096931 L12.4953491,23.8136134 L12.4953491,23.8136134 L12.5071152,23.8096931 L12.6106902,23.7357139 L12.6232938,23.7196733 L12.6232938,23.7196733 L12.6266527,23.7031097 L12.609561,23.275831 C12.6075724,23.2657013 12.6010112,23.2592993 12.5934901,23.257841 L12.5934901,23.257841 Z M12.8583906,23.1452862 L12.8445485,23.1473072 L12.6598443,23.2396597 L12.6498822,23.2499052 L12.6498822,23.2499052 L12.6471943,23.2611114 L12.6650943,23.6906389 L12.6699349,23.7034178 L12.6699349,23.7034178 L12.678386,23.7104931 L12.8793402,23.8032389 C12.8914285,23.8068999 12.9022333,23.8029875 12.9078286,23.7952264 L12.9118235,23.7811639 L12.8776777,23.1665331 C12.8752882,23.1545897 12.8674102,23.1470016 12.8583906,23.1452862 L12.8583906,23.1452862 Z M12.1430473,23.1473072 C12.1332178,23.1423925 12.1221763,23.1452606 12.1156365,23.1525954 L12.1099173,23.1665331 L12.0757714,23.7811639 C12.0751323,23.7926639 12.0828099,23.8018602 12.0926481,23.8045676 L12.108256,23.8032389 L12.3092106,23.7104931 L12.3186497,23.7024347 L12.3186497,23.7024347 L12.3225043,23.6906389 L12.340401,23.2611114 L12.337245,23.2485176 L12.337245,23.2485176 L12.3277531,23.2396597 L12.1430473,23.1473072 Z" id="MingCute" fill-rule="nonzero"></path>
          <path d="M6.04599,11.6767 C7.35323,9.47493 9.75524,8 12.5,8 C16.6421,8 20,11.3579 20,15.5 C20,16.0523 20.4477,16.5 21,16.5 C21.5523,16.5 22,16.0523 22,15.5 C22,10.2533 17.7467,6 12.5,6 C9.31864,6 6.50386,7.56337 4.78,9.96279 L4.24303,6.91751 C4.14713,6.37361 3.62847,6.01044 3.08458,6.10635 C2.54068,6.20225 2.17751,6.72091 2.27342,7.2648 L3.31531,13.1736 C3.36136,13.4348 3.50928,13.667 3.72654,13.8192 C4.0104,14.0179 4.38776,14.0542 4.70227,13.9445 L10.3826,12.9429 C10.9265,12.847 11.2897,12.3284 11.1938,11.7845 C11.0979,11.2406 10.5792,10.8774 10.0353,10.9733 L6.04599,11.6767 Z" id="路径" fill="#09244B"></path>
        </g>
      </g>
    </g>
  </symbol>
  <symbol fill="none" xmlns="http://www.w3.org/2000/svg" viewBox="0 0 24 24" id="alarm">
    <path d="M3.5 4.5L7.50002 2" stroke="#1C274C" stroke-width="1.5" stroke-linecap="round" stroke-linejoin="round"></path>
    <path d="M20.5 4.5L16.5 2" stroke="#1C274C" stroke-width="1.5" stroke-linecap="round" stroke-linejoin="round"></path>
    <path d="M7.5 5.20404C8.82378 4.43827 10.3607 4 12 4C16.9706 4 21 8.02944 21 13C21 17.9706 16.9706 22 12 22C7.02944 22 3 17.9706 3 13C3 11.3607 3.43827 9.82378 4.20404 8.5" stroke="#1C274C" stroke-width="1.5" stroke-linecap="round"></path>
  </symbol>
  <symbol fill="none" xmlns="http://www.w3.org/2000/svg" viewBox="0 0 24 24" id="add">
    <path d="M15 12L12 12M12 12L9 12M12 12L12 9M12 12L12 15" stroke="#1C274C" stroke-width="1.5" stroke-linecap="round"></path>
    <path d="M7 3.33782C8.47087 2.48697 10.1786 2 12 2C17.5228 2 22 6.47715 22 12C22 17.5228 17.5228 22 12 22C6.47715 22 2 17.5228 2 12C2 10.1786 2.48697 8.47087 3.33782 7" stroke="#1C274C" stroke-width="1.5" stroke-linecap="round"></path>
  </symbol>
  <symbol fill="none" xmlns="http://www.w3.org/2000/svg" viewBox="0 0 24 24" id="sound-on">
    <path d="M2.00299 11.7155C2.04033 9.87326 2.059 8.95215 2.67093 8.16363C2.78262 8.0197 2.9465 7.8487 3.08385 7.73274C3.83639 7.09741 4.82995 7.09741 6.81706 7.09741C7.527 7.09741 7.88197 7.09741 8.22035 7.00452C8.29067 6.98522 8.36024 6.96296 8.4289 6.93781C8.75936 6.81674 9.05574 6.60837 9.64851 6.19161C11.9872 4.54738 13.1565 3.72527 14.138 4.08241C14.3261 4.15088 14.5083 4.24972 14.671 4.37162C15.5194 5.00744 15.5839 6.48675 15.7128 9.44537C15.7606 10.5409 15.7931 11.4785 15.7931 12C15.7931 12.5215 15.7606 13.4591 15.7128 14.5546C15.5839 17.5132 15.5194 18.9926 14.671 19.6284C14.5083 19.7503 14.3261 19.8491 14.138 19.9176C13.1565 20.2747 11.9872 19.4526 9.64851 17.8084C9.05574 17.3916 8.75936 17.1833 8.4289 17.0622C8.36024 17.037 8.29067 17.0148 8.22035 16.9955C7.88197 16.9026 7.527 16.9026 6.81706 16.9026C4.82995 16.9026 3.83639 16.9026 3.08385 16.2673C2.9465 16.1513 2.78262 15.9803 2.67093 15.8364C2.059 15.0478 2.04033 14.1267 2.00299 12.2845C2.00103 12.1878 2 12.0928 2 12C2 11.9072 2.00103 11.8122 2.00299 11.7155Z" fill="#1C274C"></path>
    <path fill-rule="evenodd" clip-rule="evenodd" d="M19.4895 5.55219C19.7821 5.29218 20.217 5.33434 20.4608 5.64635L19.931 6.11713C20.4608 5.64635 20.4606 5.64602 20.4608 5.64635L20.4619 5.6477L20.4631 5.64921L20.4658 5.65275L20.4727 5.66184C20.4779 5.6688 20.4844 5.67756 20.4921 5.68814C20.5075 5.70929 20.5275 5.73772 20.5515 5.77358C20.5995 5.84529 20.6635 5.94667 20.7379 6.07889C20.8868 6.34345 21.077 6.73092 21.2644 7.25038C21.6397 8.29107 22 9.85136 22 12.0002C22 14.1491 21.6397 15.7094 21.2644 16.7501C21.077 17.2695 20.8868 17.657 20.7379 17.9216C20.6635 18.0538 20.5995 18.1552 20.5515 18.2269C20.5275 18.2627 20.5075 18.2912 20.4921 18.3123C20.4844 18.3229 20.4779 18.3317 20.4727 18.3386L20.4658 18.3477L20.4631 18.3513L20.4619 18.3528C20.4616 18.3531 20.4608 18.3541 19.931 17.8833L20.4608 18.3541C20.217 18.6661 19.7821 18.7083 19.4895 18.4483C19.1983 18.1895 19.1578 17.729 19.3977 17.417C19.3983 17.4163 19.3994 17.4148 19.4009 17.4127C19.4058 17.406 19.4154 17.3925 19.4291 17.372C19.4565 17.3311 19.5003 17.2625 19.5552 17.1649C19.6649 16.9698 19.8195 16.6587 19.977 16.2221C20.2913 15.3508 20.6207 13.9695 20.6207 12.0002C20.6207 10.0309 20.2913 8.64968 19.977 7.77836C19.8195 7.34181 19.6649 7.03066 19.5552 6.8356C19.5003 6.73802 19.4565 6.66934 19.4291 6.62845C19.4154 6.608 19.4058 6.59449 19.4009 6.58778C19.3994 6.58561 19.3983 6.58416 19.3977 6.5834C19.3977 6.5834 19.3977 6.58341 19.3977 6.5834" fill="#1C274C"></path>
    <path fill-rule="evenodd" clip-rule="evenodd" d="M17.7571 8.41595C18.0901 8.21871 18.51 8.34663 18.6949 8.70166L18.0921 9.0588C18.6949 8.70166 18.6948 8.70134 18.6949 8.70166L18.6956 8.70295L18.6963 8.70432L18.6978 8.7073L18.7014 8.71428L18.7102 8.73227C18.7169 8.74607 18.7251 8.76348 18.7345 8.78457C18.7533 8.82676 18.7772 8.88363 18.8042 8.95574C18.8584 9.10004 18.9251 9.3049 18.99 9.57476C19.1199 10.115 19.2415 10.9119 19.2415 12.0003C19.2415 13.0888 19.1199 13.8857 18.99 14.4259C18.9251 14.6958 18.8584 14.9007 18.8042 15.045C18.7772 15.1171 18.7533 15.1739 18.7345 15.2161C18.7251 15.2372 18.7169 15.2546 18.7102 15.2684L18.7014 15.2864L18.6978 15.2934L18.6963 15.2964L18.6956 15.2978C18.6954 15.2981 18.6949 15.299 18.0921 14.9419L18.6949 15.299C18.51 15.6541 18.0901 15.782 17.7571 15.5847C17.427 15.3892 17.3063 14.9474 17.4846 14.5938L17.4892 14.5838C17.4955 14.5697 17.5075 14.5415 17.5236 14.4987C17.5557 14.4132 17.6039 14.2688 17.6539 14.0606C17.7539 13.6448 17.8622 12.9709 17.8622 12.0003C17.8622 11.0298 17.7539 10.3559 17.6539 9.94007C17.6039 9.73193 17.5557 9.58748 17.5236 9.50197C17.5075 9.45918 17.4955 9.43102 17.4892 9.41691L17.4846 9.40687C17.3063 9.05332 17.427 8.61152 17.7571 8.41595Z" fill="#1C274C"></path>
  </symbol>
  <symbol fill="none" xmlns="http://www.w3.org/2000/svg" viewBox="0 0 24 24" id="sound-off">
    <path d="M21.7803 3.53033C22.0732 3.23744 22.0732 2.76256 21.7803 2.46967C21.4874 2.17678 21.0126 2.17678 20.7197 2.46967L16.2705 6.91886C16.2246 6.39532 16.1646 5.93197 16.077 5.52977C15.9052 4.74135 15.6003 4.05581 14.9609 3.60646C14.7259 3.44128 14.4642 3.30809 14.1923 3.21531C13.3741 2.9361 12.5608 3.15928 11.7348 3.56055C10.9212 3.95576 9.93412 4.60663 8.70324 5.41822L8.43647 5.59411C7.98856 5.88944 7.83448 5.98815 7.67513 6.05848C7.50452 6.13378 7.3252 6.18757 7.14132 6.21862C6.96956 6.24762 6.7866 6.25003 6.25008 6.25003L6.08906 6.24998C4.87215 6.24933 4.02659 6.24889 3.27496 6.59664C2.58016 6.9181 1.91141 7.54732 1.54828 8.22128C1.15566 8.94996 1.10959 9.712 1.04409 10.7955L1.03618 10.926C1.01373 11.2943 1 11.6585 1 12C1 12.3416 1.01373 12.7058 1.03618 13.0741L1.04409 13.2045C1.10959 14.2881 1.15566 15.0501 1.54828 15.7788C1.91141 16.4527 2.58016 17.082 3.27496 17.4034C3.88551 17.6859 4.55803 17.7386 5.44121 17.7481L2.71967 20.4697C2.42678 20.7626 2.42678 21.2374 2.71967 21.5303C3.01256 21.8232 3.48744 21.8232 3.78033 21.5303L21.7803 3.53033Z" fill="#1C274C"></path>
    <g opacity="0.4">
      <path d="M16.2382 9.07225L7.61424 17.6963C8.00956 18.1712 9.02592 18.8138 9.33873 19.0002C10.3775 19.6809 11.2373 20.2249 11.9702 20.5491C12.7125 20.8775 13.4501 21.0381 14.1921 20.7849C14.464 20.6921 14.7257 20.5589 14.9607 20.3937C15.6668 19.8975 15.9657 19.1135 16.1276 18.2141C16.2868 17.3297 16.3412 16.1578 16.409 14.6979L16.4117 14.6404C16.4635 13.5254 16.4998 12.5522 16.4998 12.0002C16.4998 11.9729 16.5 11.9363 16.5002 11.8916C16.503 11.3245 16.5122 9.46272 16.2382 9.07225Z" fill="#1C274C"></path>
      <path d="M20.5143 6.31657C20.8918 6.14622 21.336 6.3142 21.5063 6.69176C21.9734 7.7269 22.4998 9.45974 22.4998 12.0002C22.4998 14.1917 22.108 15.783 21.6998 16.8444C21.496 17.3742 21.2892 17.7693 21.1273 18.0392C21.0464 18.174 20.9768 18.2774 20.9246 18.3505C20.8984 18.3871 20.8767 18.4161 20.86 18.4377C20.8516 18.4485 20.8446 18.4574 20.8389 18.4645L20.8314 18.4738L20.8284 18.4774L20.8271 18.4789C20.8271 18.4789 20.826 18.4803 20.2512 18.0013L20.826 18.4803C20.5608 18.7985 20.0879 18.8415 19.7697 18.5763C19.453 18.3124 19.4089 17.8428 19.6698 17.5246L19.6733 17.5202L19.6834 17.5068C19.6888 17.4996 19.6957 17.4902 19.704 17.4787C19.7337 17.437 19.7813 17.3669 19.8411 17.2674C19.9604 17.0685 20.1286 16.7512 20.2998 16.3059C20.6416 15.4173 20.9998 14.0086 20.9998 12.0002C20.9998 9.67383 20.5192 8.15116 20.1391 7.30865C19.9687 6.93109 20.1367 6.48692 20.5143 6.31657Z" fill="#1C274C"></path>
      <path d="M19.3006 9.84771C19.2164 9.44214 18.8194 9.18162 18.4138 9.26583C18.0082 9.35003 17.7477 9.74706 17.8319 10.1526C17.9204 10.5789 17.9998 11.1874 17.9998 12.0002C17.9998 12.99 17.882 13.6773 17.7733 14.1014C17.7189 14.3137 17.6665 14.461 17.6316 14.5482C17.6141 14.5918 17.601 14.6205 17.5941 14.6349L17.5891 14.6452C17.3953 15.0058 17.5266 15.4563 17.8856 15.6558C18.2477 15.8569 18.7043 15.7265 18.9054 15.3644L18.2509 15.0008C18.9054 15.3644 18.9061 15.3631 18.9061 15.3631L18.9069 15.3617L18.9086 15.3586L18.9124 15.3515L18.9221 15.3332C18.9293 15.3191 18.9382 15.3014 18.9484 15.2798C18.9689 15.2368 18.9949 15.1788 19.0243 15.1053C19.0831 14.9581 19.1557 14.7492 19.2263 14.4739C19.3676 13.923 19.4998 13.1103 19.4998 12.0002C19.4998 11.0891 19.4107 10.3782 19.3006 9.84771Z" fill="#1C274C"></path>
    </g>
  </symbol>
  <symbol fill="#1c274d" version="1.1" xmlns="http://www.w3.org/2000/svg" viewBox="0 0 32 32" id="save">
    <g id="SVGRepo_bgCarrier" stroke-width="0"></g>
    <g id="SVGRepo_tracerCarrier" stroke-linecap="round" stroke-linejoin="round"></g>
    <g id="SVGRepo_iconCarrier">
      <title>save</title>
      <path d="M9.467 3.106h3.030c0.266 0 0.482 0.278 0.482 0.621v4.374c0 0.343-0.216 0.621-0.482 0.621h-3.030c-0.266 0-0.482-0.278-0.482-0.621v-4.374c0-0.343 0.216-0.621 0.482-0.621zM21.964 14.524l7.987 7.987h-3.993v7.987h-7.987v-7.987h-3.993l7.987-7.987zM17.422 24.768h-10.309c-0.276 0-0.499-0.223-0.499-0.499v-11.481c0-0.276 0.223-0.499 0.499-0.499h17.721c0.276 0 0.499 0.223 0.499 0.499v4.402l3.12 3.12v-13.262c0-0.276-4.216-4.493-4.493-4.493h-4.741c0.169 0.069 0.287 0.223 0.287 0.404v6.181c0 0.244-0.216 0.442-0.482 0.442h-10.594c-0.266 0-0.482-0.198-0.482-0.442v-6.181c0-0.18 0.118-0.335 0.287-0.404h-4.242c-0.277 0-0.499 0.223-0.499 0.499v23.961c0 0.277 0.223 0.499 0.499 0.499h13.429v-2.746zM26.506 22.903v4.611h1.449c0.277 0 0.499-0.223 0.499-0.499v-4.111l-1.948 0z"></path>
    </g>
  </symbol>
  <symbol fill="#1c274d" version="1.1" xmlns="http://www.w3.org/2000/svg" viewBox="0 0 32 32" id="load">
    <g id="SVGRepo_bgCarrier" stroke-width="0"></g>
    <g id="SVGRepo_tracerCarrier" stroke-linecap="round" stroke-linejoin="round"></g>
    <g id="SVGRepo_iconCarrier">
      <title>load</title>
      <path d="M9.467 9.609h3.030c0.266 0 0.482-0.278 0.482-0.621v-4.374c0-0.343-0.216-0.621-0.482-0.621h-3.030c-0.266 0-0.482 0.278-0.482 0.621v4.374c0 0.343 0.216 0.621 0.482 0.621zM25.958 23.399v-7.987h-7.987v7.987h-3.993l7.987 7.987 7.987-7.987zM7.113 25.708c-0.276 0-0.499-0.223-0.499-0.499v-11.481c0-0.276 0.223-0.499 0.499-0.499h17.721c0.276 0 0.499 0.223 0.499 0.499v0.536h1.554v8.607h1.566v-14.884c0-0.276-4.216-4.493-4.493-4.493h-4.741c0.169 0.069 0.287 0.223 0.287 0.404v6.181c0 0.244-0.216 0.442-0.482 0.442h-10.594c-0.266 0-0.482-0.198-0.482-0.442v-6.181c0-0.18 0.118-0.335 0.287-0.404h-4.242c-0.277 0-0.499 0.223-0.499 0.499v23.961c0 0.277 0.223 0.499 0.499 0.499h14.412l-2.746-2.746h-8.546z"></path>
    </g>
  </symbol>
  <symbol fill="none" xmlns="http://www.w3.org/2000/svg" viewBox="0 0 24 24" id="theme-dark">
    <path opacity="0.5" d="M12 22C17.5228 22 22 17.5228 22 12C22 11.5373 21.3065 11.4608 21.0672 11.8568C19.9289 13.7406 17.8615 15 15.5 15C11.9101 15 9 12.0899 9 8.5C9 6.13845 10.2594 4.07105 12.1432 2.93276C12.5392 2.69347 12.4627 2 12 2C6.47715 2 2 6.47715 2 12C2 17.5228 6.47715 22 12 22Z" fill="#1C274C"></path>
    <path d="M11.2857 22C13.3371 22 15 20.4198 15 18.4706C15 16.9257 13.9554 15.6126 12.5008 15.1344C12.2941 13.3711 10.7203 12 8.80952 12C6.75818 12 5.09524 13.5802 5.09524 15.5294C5.09524 15.9605 5.17659 16.3736 5.3255 16.7555C5.15087 16.723 4.97039 16.7059 4.78571 16.7059C3.24721 16.7059 2 17.891 2 19.3529C2 20.8149 3.24721 22 4.78571 22H11.2857Z" fill="#1C274C"></path>
  </symbol>
  <symbol fill="none" xmlns="http://www.w3.org/2000/svg" viewBox="0 0 24 24" id="theme-light">
    <path opacity="0.5" d="M11.5 8C11.5 9.933 9.933 11.5 8 11.5C6.067 11.5 4.5 9.933 4.5 8C4.5 6.067 6.067 4.5 8 4.5C9.933 4.5 11.5 6.067 11.5 8Z" fill="#1C274C"></path>
    <g opacity="0.5">
      <path fill-rule="evenodd" clip-rule="evenodd" d="M7.5 1.25C7.91421 1.25 8.25 1.58579 8.25 2V2.5C8.25 2.91421 7.91421 3.25 7.5 3.25C7.08579 3.25 6.75 2.91421 6.75 2.5V2C6.75 1.58579 7.08579 1.25 7.5 1.25ZM3.08086 3.08059C3.37375 2.78769 3.84862 2.78769 4.14152 3.08059L4.35758 3.29665C4.65047 3.58954 4.65047 4.06441 4.35758 4.35731C4.06468 4.6502 3.58981 4.6502 3.29692 4.35731L3.08086 4.14125C2.78796 3.84835 2.78796 3.37348 3.08086 3.08059ZM11.919 3.08073C12.2119 3.37362 12.2119 3.8485 11.919 4.14139L11.7029 4.35745C11.41 4.65034 10.9352 4.65034 10.6423 4.35745C10.3494 4.06456 10.3494 3.58968 10.6423 3.29679L10.8583 3.08073C11.1512 2.78784 11.6261 2.78784 11.919 3.08073ZM1.25 7.5C1.25 7.08579 1.58579 6.75 2 6.75H2.5C2.91421 6.75 3.25 7.08579 3.25 7.5C3.25 7.91421 2.91421 8.25 2.5 8.25H2C1.58579 8.25 1.25 7.91421 1.25 7.5ZM4.35758 10.6427C4.65047 10.9356 4.65047 11.4105 4.35758 11.7034L4.14152 11.9194C3.84862 12.2123 3.37375 12.2123 3.08086 11.9194C2.78796 11.6265 2.78796 11.1516 3.08086 10.8588L3.29692 10.6427C3.58981 10.3498 4.06468 10.3498 4.35758 10.6427Z" fill="#1C274C"></path>
    </g>
    <path d="M16.2857 22C19.4416 22 22 19.4717 22 16.3529C22 13.8811 20.393 11.7802 18.1551 11.015C17.8371 8.19371 15.4159 6 12.4762 6C9.32028 6 6.7619 8.52827 6.7619 11.6471C6.7619 12.3369 6.88706 12.9978 7.11616 13.6089C6.8475 13.5567 6.56983 13.5294 6.28571 13.5294C3.91878 13.5294 2 15.4256 2 17.7647C2 20.1038 3.91878 22 6.28571 22H16.2857Z" fill="#1C274C"></path>
  </symbol>
</svg>